<svg width="17" height="17" viewBox="0 0 17 17" fill="none" xmlns="http://www.w3.org/2000/svg">
<g clip-path="url(#clip0_35_154)">
<path d="M8.31427 14.233L11.6141 10.9331C13.4365 9.1107 13.4365 6.15591 11.6141 4.33347C9.79167 2.51102 6.83688 2.51102 5.01444 4.33347C3.19199 6.15591 3.19199 9.1107 5.01444 10.9331L8.31427 14.233ZM8.31427 16.1186L4.07163 11.876C1.72848 9.53277 1.72848 5.73381 4.07163 3.39066C6.41478 1.04751 10.2137 1.04751 12.5569 3.39066C14.9001 5.73381 14.9001 9.53277 12.5569 11.876L8.31427 16.1186ZM8.31427 8.96663C9.05067 8.96663 9.6476 8.3697 9.6476 7.6333C9.6476 6.89692 9.05067 6.29997 8.31427 6.29997C7.57787 6.29997 6.98094 6.89692 6.98094 7.6333C6.98094 8.3697 7.57787 8.96663 8.31427 8.96663ZM8.31427 10.3C6.84151 10.3 5.6476 9.10604 5.6476 7.6333C5.6476 6.16054 6.84151 4.96663 8.31427 4.96663C9.787 4.96663 10.9809 6.16054 10.9809 7.6333C10.9809 9.10604 9.787 10.3 8.31427 10.3Z" fill="black"/>
</g>
<defs>
<clipPath id="clip0_35_154">
<rect width="16" height="16" fill="white" transform="translate(0.31427 0.299927)"/>
</clipPath>
</defs>
</svg>
