<svg width="34" height="34" viewBox="0 0 34 34" fill="#000" xmlns="http://www.w3.org/2000/svg">
<path d="M30.334 16.9997C30.334 13.4635 28.9292 10.0721 26.4287 7.57158C23.9283 5.0711 20.5369 3.66634 17.0007 3.66634C13.4644 3.66634 10.073 5.0711 7.57256 7.57158C5.07208 10.0721 3.66732 13.4635 3.66732 16.9997V23.6663H8.66732C9.10935 23.6663 9.53327 23.8419 9.84583 24.1545C10.1584 24.4671 10.334 24.891 10.334 25.333V30.333H23.6673V25.333C23.6673 24.891 23.8429 24.4671 24.1555 24.1545C24.468 23.8419 24.892 23.6663 25.334 23.6663H30.334V16.9997ZM27.0007 26.9997V31.9997C27.0007 32.4417 26.8251 32.8656 26.5125 33.1782C26.1999 33.4907 25.776 33.6663 25.334 33.6663H8.66732C8.22529 33.6663 7.80137 33.4907 7.48881 33.1782C7.17625 32.8656 7.00065 32.4417 7.00065 31.9997V26.9997H2.00065C1.55862 26.9997 1.1347 26.8241 0.82214 26.5115C0.509579 26.199 0.333984 25.775 0.333984 25.333V16.9997C0.333984 7.79468 7.79565 0.333008 17.0007 0.333008C26.2057 0.333008 33.6673 7.79468 33.6673 16.9997V25.333C33.6673 25.775 33.4917 26.199 33.1792 26.5115C32.8666 26.8241 32.4427 26.9997 32.0007 26.9997H27.0007ZM9.50065 20.333C9.17235 20.333 8.84726 20.2683 8.54394 20.1427C8.24063 20.0171 7.96503 19.8329 7.73288 19.6008C7.50074 19.3686 7.31659 19.093 7.19095 18.7897C7.06532 18.4864 7.00065 18.1613 7.00065 17.833C7.00065 17.5047 7.06532 17.1796 7.19095 16.8763C7.31659 16.573 7.50074 16.2974 7.73288 16.0652C7.96503 15.8331 8.24063 15.6489 8.54394 15.5233C8.84726 15.3977 9.17235 15.333 9.50065 15.333C10.1637 15.333 10.7996 15.5964 11.2684 16.0652C11.7373 16.5341 12.0007 17.17 12.0007 17.833C12.0007 18.496 11.7373 19.1319 11.2684 19.6008C10.7996 20.0696 10.1637 20.333 9.50065 20.333ZM24.5007 20.333C24.1723 20.333 23.8473 20.2683 23.5439 20.1427C23.2406 20.0171 22.965 19.8329 22.7329 19.6008C22.5007 19.3686 22.3166 19.093 22.191 18.7897C22.0653 18.4864 22.0007 18.1613 22.0007 17.833C22.0007 17.5047 22.0653 17.1796 22.191 16.8763C22.3166 16.573 22.5007 16.2974 22.7329 16.0652C22.965 15.8331 23.2406 15.6489 23.5439 15.5233C23.8473 15.3977 24.1723 15.333 24.5007 15.333C25.1637 15.333 25.7996 15.5964 26.2684 16.0652C26.7373 16.5341 27.0007 17.17 27.0007 17.833C27.0007 18.496 26.7373 19.1319 26.2684 19.6008C25.7996 20.0696 25.1637 20.333 24.5007 20.333Z" fill="#191825"/>
</svg>
